<mxfile host="app.diagrams.net" agent="Mozilla/5.0 (Windows NT 10.0; Win64; x64) AppleWebKit/537.36 (KHTML, like Gecko) Chrome/137.0.0.0 Safari/537.36 Edg/137.0.0.0" version="27.1.5">
  <diagram name="Critical Path" id="goRTRztHz8ZOXa-1i0v6">
    <mxGraphModel dx="1225" dy="657" grid="1" gridSize="10" guides="1" tooltips="1" connect="1" arrows="1" fold="1" page="1" pageScale="1" pageWidth="850" pageHeight="1100" math="0" shadow="0">
      <root>
        <mxCell id="0" />
        <mxCell id="1" parent="0" />
        <mxCell id="2OJKb3O0UvZsIMJTwoCQ-4" value="" style="edgeStyle=orthogonalEdgeStyle;rounded=0;orthogonalLoop=1;jettySize=auto;html=1;" parent="1" source="2OJKb3O0UvZsIMJTwoCQ-1" target="2OJKb3O0UvZsIMJTwoCQ-3" edge="1">
          <mxGeometry relative="1" as="geometry" />
        </mxCell>
        <mxCell id="2OJKb3O0UvZsIMJTwoCQ-11" value="A = 3" style="edgeLabel;html=1;align=center;verticalAlign=middle;resizable=0;points=[];" parent="2OJKb3O0UvZsIMJTwoCQ-4" vertex="1" connectable="0">
          <mxGeometry x="-0.0083" y="2" relative="1" as="geometry">
            <mxPoint x="-1" y="-8" as="offset" />
          </mxGeometry>
        </mxCell>
        <mxCell id="2OJKb3O0UvZsIMJTwoCQ-1" value="0" style="ellipse;whiteSpace=wrap;html=1;aspect=fixed;" parent="1" vertex="1">
          <mxGeometry x="320" y="180" width="80" height="80" as="geometry" />
        </mxCell>
        <mxCell id="2OJKb3O0UvZsIMJTwoCQ-6" value="" style="edgeStyle=orthogonalEdgeStyle;rounded=0;orthogonalLoop=1;jettySize=auto;html=1;" parent="1" source="2OJKb3O0UvZsIMJTwoCQ-3" target="2OJKb3O0UvZsIMJTwoCQ-5" edge="1">
          <mxGeometry relative="1" as="geometry" />
        </mxCell>
        <mxCell id="2OJKb3O0UvZsIMJTwoCQ-12" value="B = 9" style="edgeLabel;html=1;align=center;verticalAlign=middle;resizable=0;points=[];" parent="2OJKb3O0UvZsIMJTwoCQ-6" vertex="1" connectable="0">
          <mxGeometry x="0.0745" y="2" relative="1" as="geometry">
            <mxPoint x="-3" y="-8" as="offset" />
          </mxGeometry>
        </mxCell>
        <mxCell id="2OJKb3O0UvZsIMJTwoCQ-10" value="" style="rounded=0;orthogonalLoop=1;jettySize=auto;html=1;" parent="1" source="2OJKb3O0UvZsIMJTwoCQ-3" target="2OJKb3O0UvZsIMJTwoCQ-9" edge="1">
          <mxGeometry relative="1" as="geometry" />
        </mxCell>
        <mxCell id="2OJKb3O0UvZsIMJTwoCQ-13" value="D = 8" style="edgeLabel;html=1;align=center;verticalAlign=middle;resizable=0;points=[];" parent="2OJKb3O0UvZsIMJTwoCQ-10" vertex="1" connectable="0">
          <mxGeometry x="0.0436" y="1" relative="1" as="geometry">
            <mxPoint x="-30" y="8" as="offset" />
          </mxGeometry>
        </mxCell>
        <mxCell id="2OJKb3O0UvZsIMJTwoCQ-3" value="1" style="ellipse;whiteSpace=wrap;html=1;aspect=fixed;" parent="1" vertex="1">
          <mxGeometry x="560" y="180" width="80" height="80" as="geometry" />
        </mxCell>
        <mxCell id="2OJKb3O0UvZsIMJTwoCQ-8" value="" style="edgeStyle=orthogonalEdgeStyle;rounded=0;orthogonalLoop=1;jettySize=auto;html=1;" parent="1" source="2OJKb3O0UvZsIMJTwoCQ-5" target="2OJKb3O0UvZsIMJTwoCQ-7" edge="1">
          <mxGeometry relative="1" as="geometry" />
        </mxCell>
        <mxCell id="2OJKb3O0UvZsIMJTwoCQ-15" value="C = 15" style="edgeLabel;html=1;align=center;verticalAlign=middle;resizable=0;points=[];" parent="2OJKb3O0UvZsIMJTwoCQ-8" vertex="1" connectable="0">
          <mxGeometry x="0.0039" y="-6" relative="1" as="geometry">
            <mxPoint x="-6" y="-16" as="offset" />
          </mxGeometry>
        </mxCell>
        <mxCell id="2OJKb3O0UvZsIMJTwoCQ-5" value="2" style="ellipse;whiteSpace=wrap;html=1;aspect=fixed;" parent="1" vertex="1">
          <mxGeometry x="810" y="180" width="80" height="80" as="geometry" />
        </mxCell>
        <mxCell id="2OJKb3O0UvZsIMJTwoCQ-22" style="edgeStyle=orthogonalEdgeStyle;rounded=0;orthogonalLoop=1;jettySize=auto;html=1;" parent="1" source="2OJKb3O0UvZsIMJTwoCQ-7" target="2OJKb3O0UvZsIMJTwoCQ-20" edge="1">
          <mxGeometry relative="1" as="geometry" />
        </mxCell>
        <mxCell id="2OJKb3O0UvZsIMJTwoCQ-29" value="F = 19" style="edgeLabel;html=1;align=center;verticalAlign=middle;resizable=0;points=[];" parent="2OJKb3O0UvZsIMJTwoCQ-22" vertex="1" connectable="0">
          <mxGeometry x="-0.0013" relative="1" as="geometry">
            <mxPoint x="-5" y="-10" as="offset" />
          </mxGeometry>
        </mxCell>
        <mxCell id="2OJKb3O0UvZsIMJTwoCQ-7" value="4" style="ellipse;whiteSpace=wrap;html=1;aspect=fixed;" parent="1" vertex="1">
          <mxGeometry x="1060" y="180" width="80" height="80" as="geometry" />
        </mxCell>
        <mxCell id="2OJKb3O0UvZsIMJTwoCQ-17" value="" style="rounded=0;orthogonalLoop=1;jettySize=auto;html=1;entryX=0.5;entryY=1;entryDx=0;entryDy=0;" parent="1" source="2OJKb3O0UvZsIMJTwoCQ-9" target="2OJKb3O0UvZsIMJTwoCQ-7" edge="1">
          <mxGeometry relative="1" as="geometry">
            <mxPoint x="1060" y="380" as="targetPoint" />
          </mxGeometry>
        </mxCell>
        <mxCell id="2OJKb3O0UvZsIMJTwoCQ-18" value="E = 15" style="edgeLabel;html=1;align=center;verticalAlign=middle;resizable=0;points=[];" parent="2OJKb3O0UvZsIMJTwoCQ-17" vertex="1" connectable="0">
          <mxGeometry x="0.051" relative="1" as="geometry">
            <mxPoint x="-18" y="31" as="offset" />
          </mxGeometry>
        </mxCell>
        <mxCell id="2OJKb3O0UvZsIMJTwoCQ-9" value="3" style="ellipse;whiteSpace=wrap;html=1;aspect=fixed;" parent="1" vertex="1">
          <mxGeometry x="810" y="340" width="80" height="80" as="geometry" />
        </mxCell>
        <mxCell id="2OJKb3O0UvZsIMJTwoCQ-24" value="" style="edgeStyle=orthogonalEdgeStyle;rounded=0;orthogonalLoop=1;jettySize=auto;html=1;" parent="1" source="2OJKb3O0UvZsIMJTwoCQ-20" target="2OJKb3O0UvZsIMJTwoCQ-23" edge="1">
          <mxGeometry relative="1" as="geometry" />
        </mxCell>
        <mxCell id="2OJKb3O0UvZsIMJTwoCQ-30" value="G = 24" style="edgeLabel;html=1;align=center;verticalAlign=middle;resizable=0;points=[];" parent="2OJKb3O0UvZsIMJTwoCQ-24" vertex="1" connectable="0">
          <mxGeometry x="-0.0579" relative="1" as="geometry">
            <mxPoint x="20" as="offset" />
          </mxGeometry>
        </mxCell>
        <mxCell id="2OJKb3O0UvZsIMJTwoCQ-20" value="5" style="ellipse;whiteSpace=wrap;html=1;aspect=fixed;" parent="1" vertex="1">
          <mxGeometry x="1310" y="180" width="80" height="80" as="geometry" />
        </mxCell>
        <mxCell id="2OJKb3O0UvZsIMJTwoCQ-26" value="" style="edgeStyle=orthogonalEdgeStyle;rounded=0;orthogonalLoop=1;jettySize=auto;html=1;" parent="1" source="2OJKb3O0UvZsIMJTwoCQ-23" target="2OJKb3O0UvZsIMJTwoCQ-25" edge="1">
          <mxGeometry relative="1" as="geometry" />
        </mxCell>
        <mxCell id="2OJKb3O0UvZsIMJTwoCQ-31" value="H = 27" style="edgeLabel;html=1;align=center;verticalAlign=middle;resizable=0;points=[];" parent="2OJKb3O0UvZsIMJTwoCQ-26" vertex="1" connectable="0">
          <mxGeometry x="-0.0817" y="-1" relative="1" as="geometry">
            <mxPoint x="21" as="offset" />
          </mxGeometry>
        </mxCell>
        <mxCell id="2OJKb3O0UvZsIMJTwoCQ-23" value="6" style="ellipse;whiteSpace=wrap;html=1;aspect=fixed;" parent="1" vertex="1">
          <mxGeometry x="1310" y="340" width="80" height="80" as="geometry" />
        </mxCell>
        <mxCell id="2OJKb3O0UvZsIMJTwoCQ-28" value="" style="edgeStyle=orthogonalEdgeStyle;rounded=0;orthogonalLoop=1;jettySize=auto;html=1;" parent="1" source="2OJKb3O0UvZsIMJTwoCQ-25" target="2OJKb3O0UvZsIMJTwoCQ-27" edge="1">
          <mxGeometry relative="1" as="geometry" />
        </mxCell>
        <mxCell id="2OJKb3O0UvZsIMJTwoCQ-32" value="I = 29" style="edgeLabel;html=1;align=center;verticalAlign=middle;resizable=0;points=[];" parent="2OJKb3O0UvZsIMJTwoCQ-28" vertex="1" connectable="0">
          <mxGeometry x="0.0237" y="-2" relative="1" as="geometry">
            <mxPoint y="-8" as="offset" />
          </mxGeometry>
        </mxCell>
        <mxCell id="2OJKb3O0UvZsIMJTwoCQ-25" value="7" style="ellipse;whiteSpace=wrap;html=1;aspect=fixed;" parent="1" vertex="1">
          <mxGeometry x="1310" y="500" width="80" height="80" as="geometry" />
        </mxCell>
        <mxCell id="2OJKb3O0UvZsIMJTwoCQ-27" value="8" style="ellipse;whiteSpace=wrap;html=1;aspect=fixed;" parent="1" vertex="1">
          <mxGeometry x="1060" y="500" width="80" height="80" as="geometry" />
        </mxCell>
        <mxCell id="2OJKb3O0UvZsIMJTwoCQ-34" value="" style="edgeStyle=orthogonalEdgeStyle;rounded=0;orthogonalLoop=1;jettySize=auto;html=1;" parent="1" source="2OJKb3O0UvZsIMJTwoCQ-36" target="2OJKb3O0UvZsIMJTwoCQ-41" edge="1">
          <mxGeometry relative="1" as="geometry" />
        </mxCell>
        <mxCell id="2OJKb3O0UvZsIMJTwoCQ-35" value="A = 0" style="edgeLabel;html=1;align=center;verticalAlign=middle;resizable=0;points=[];" parent="2OJKb3O0UvZsIMJTwoCQ-34" vertex="1" connectable="0">
          <mxGeometry x="-0.0083" y="2" relative="1" as="geometry">
            <mxPoint x="-1" y="-8" as="offset" />
          </mxGeometry>
        </mxCell>
        <mxCell id="2OJKb3O0UvZsIMJTwoCQ-36" value="0" style="ellipse;whiteSpace=wrap;html=1;aspect=fixed;" parent="1" vertex="1">
          <mxGeometry x="315" y="840" width="80" height="80" as="geometry" />
        </mxCell>
        <mxCell id="2OJKb3O0UvZsIMJTwoCQ-37" value="" style="edgeStyle=orthogonalEdgeStyle;rounded=0;orthogonalLoop=1;jettySize=auto;html=1;" parent="1" source="2OJKb3O0UvZsIMJTwoCQ-41" target="2OJKb3O0UvZsIMJTwoCQ-44" edge="1">
          <mxGeometry relative="1" as="geometry" />
        </mxCell>
        <mxCell id="2OJKb3O0UvZsIMJTwoCQ-38" value="B = 3" style="edgeLabel;html=1;align=center;verticalAlign=middle;resizable=0;points=[];" parent="2OJKb3O0UvZsIMJTwoCQ-37" vertex="1" connectable="0">
          <mxGeometry x="0.0745" y="2" relative="1" as="geometry">
            <mxPoint x="-3" y="-8" as="offset" />
          </mxGeometry>
        </mxCell>
        <mxCell id="2OJKb3O0UvZsIMJTwoCQ-39" value="" style="rounded=0;orthogonalLoop=1;jettySize=auto;html=1;" parent="1" source="2OJKb3O0UvZsIMJTwoCQ-41" target="2OJKb3O0UvZsIMJTwoCQ-50" edge="1">
          <mxGeometry relative="1" as="geometry" />
        </mxCell>
        <mxCell id="2OJKb3O0UvZsIMJTwoCQ-40" value="D = 3" style="edgeLabel;html=1;align=center;verticalAlign=middle;resizable=0;points=[];" parent="2OJKb3O0UvZsIMJTwoCQ-39" vertex="1" connectable="0">
          <mxGeometry x="0.0436" y="1" relative="1" as="geometry">
            <mxPoint x="-30" y="8" as="offset" />
          </mxGeometry>
        </mxCell>
        <mxCell id="2OJKb3O0UvZsIMJTwoCQ-41" value="1" style="ellipse;whiteSpace=wrap;html=1;aspect=fixed;" parent="1" vertex="1">
          <mxGeometry x="555" y="840" width="80" height="80" as="geometry" />
        </mxCell>
        <mxCell id="2OJKb3O0UvZsIMJTwoCQ-42" value="" style="edgeStyle=orthogonalEdgeStyle;rounded=0;orthogonalLoop=1;jettySize=auto;html=1;" parent="1" source="2OJKb3O0UvZsIMJTwoCQ-44" target="2OJKb3O0UvZsIMJTwoCQ-47" edge="1">
          <mxGeometry relative="1" as="geometry" />
        </mxCell>
        <mxCell id="2OJKb3O0UvZsIMJTwoCQ-43" value="C = 9" style="edgeLabel;html=1;align=center;verticalAlign=middle;resizable=0;points=[];" parent="2OJKb3O0UvZsIMJTwoCQ-42" vertex="1" connectable="0">
          <mxGeometry x="0.0039" y="-6" relative="1" as="geometry">
            <mxPoint x="-6" y="-16" as="offset" />
          </mxGeometry>
        </mxCell>
        <mxCell id="2OJKb3O0UvZsIMJTwoCQ-44" value="2" style="ellipse;whiteSpace=wrap;html=1;aspect=fixed;" parent="1" vertex="1">
          <mxGeometry x="805" y="840" width="80" height="80" as="geometry" />
        </mxCell>
        <mxCell id="2OJKb3O0UvZsIMJTwoCQ-45" style="edgeStyle=orthogonalEdgeStyle;rounded=0;orthogonalLoop=1;jettySize=auto;html=1;" parent="1" source="2OJKb3O0UvZsIMJTwoCQ-47" target="2OJKb3O0UvZsIMJTwoCQ-53" edge="1">
          <mxGeometry relative="1" as="geometry" />
        </mxCell>
        <mxCell id="2OJKb3O0UvZsIMJTwoCQ-46" value="F = 15" style="edgeLabel;html=1;align=center;verticalAlign=middle;resizable=0;points=[];" parent="2OJKb3O0UvZsIMJTwoCQ-45" vertex="1" connectable="0">
          <mxGeometry x="-0.0013" relative="1" as="geometry">
            <mxPoint x="-5" y="-10" as="offset" />
          </mxGeometry>
        </mxCell>
        <mxCell id="2OJKb3O0UvZsIMJTwoCQ-47" value="4" style="ellipse;whiteSpace=wrap;html=1;aspect=fixed;" parent="1" vertex="1">
          <mxGeometry x="1055" y="840" width="80" height="80" as="geometry" />
        </mxCell>
        <mxCell id="2OJKb3O0UvZsIMJTwoCQ-48" value="" style="rounded=0;orthogonalLoop=1;jettySize=auto;html=1;entryX=0.5;entryY=1;entryDx=0;entryDy=0;" parent="1" source="2OJKb3O0UvZsIMJTwoCQ-50" target="2OJKb3O0UvZsIMJTwoCQ-47" edge="1">
          <mxGeometry relative="1" as="geometry">
            <mxPoint x="1055" y="1040" as="targetPoint" />
          </mxGeometry>
        </mxCell>
        <mxCell id="2OJKb3O0UvZsIMJTwoCQ-49" value="E = 8" style="edgeLabel;html=1;align=center;verticalAlign=middle;resizable=0;points=[];" parent="2OJKb3O0UvZsIMJTwoCQ-48" vertex="1" connectable="0">
          <mxGeometry x="0.051" relative="1" as="geometry">
            <mxPoint x="-18" y="31" as="offset" />
          </mxGeometry>
        </mxCell>
        <mxCell id="2OJKb3O0UvZsIMJTwoCQ-50" value="3" style="ellipse;whiteSpace=wrap;html=1;aspect=fixed;" parent="1" vertex="1">
          <mxGeometry x="805" y="1000" width="80" height="80" as="geometry" />
        </mxCell>
        <mxCell id="2OJKb3O0UvZsIMJTwoCQ-51" value="" style="edgeStyle=orthogonalEdgeStyle;rounded=0;orthogonalLoop=1;jettySize=auto;html=1;" parent="1" source="2OJKb3O0UvZsIMJTwoCQ-53" target="2OJKb3O0UvZsIMJTwoCQ-56" edge="1">
          <mxGeometry relative="1" as="geometry" />
        </mxCell>
        <mxCell id="2OJKb3O0UvZsIMJTwoCQ-52" value="G = 19" style="edgeLabel;html=1;align=center;verticalAlign=middle;resizable=0;points=[];" parent="2OJKb3O0UvZsIMJTwoCQ-51" vertex="1" connectable="0">
          <mxGeometry x="-0.0579" relative="1" as="geometry">
            <mxPoint x="20" as="offset" />
          </mxGeometry>
        </mxCell>
        <mxCell id="2OJKb3O0UvZsIMJTwoCQ-53" value="5" style="ellipse;whiteSpace=wrap;html=1;aspect=fixed;" parent="1" vertex="1">
          <mxGeometry x="1305" y="840" width="80" height="80" as="geometry" />
        </mxCell>
        <mxCell id="2OJKb3O0UvZsIMJTwoCQ-54" value="" style="edgeStyle=orthogonalEdgeStyle;rounded=0;orthogonalLoop=1;jettySize=auto;html=1;" parent="1" source="2OJKb3O0UvZsIMJTwoCQ-56" target="2OJKb3O0UvZsIMJTwoCQ-59" edge="1">
          <mxGeometry relative="1" as="geometry" />
        </mxCell>
        <mxCell id="2OJKb3O0UvZsIMJTwoCQ-55" value="H = 24" style="edgeLabel;html=1;align=center;verticalAlign=middle;resizable=0;points=[];" parent="2OJKb3O0UvZsIMJTwoCQ-54" vertex="1" connectable="0">
          <mxGeometry x="-0.0817" y="-1" relative="1" as="geometry">
            <mxPoint x="21" as="offset" />
          </mxGeometry>
        </mxCell>
        <mxCell id="2OJKb3O0UvZsIMJTwoCQ-56" value="6" style="ellipse;whiteSpace=wrap;html=1;aspect=fixed;" parent="1" vertex="1">
          <mxGeometry x="1305" y="1000" width="80" height="80" as="geometry" />
        </mxCell>
        <mxCell id="2OJKb3O0UvZsIMJTwoCQ-57" value="" style="edgeStyle=orthogonalEdgeStyle;rounded=0;orthogonalLoop=1;jettySize=auto;html=1;" parent="1" source="2OJKb3O0UvZsIMJTwoCQ-59" target="2OJKb3O0UvZsIMJTwoCQ-60" edge="1">
          <mxGeometry relative="1" as="geometry" />
        </mxCell>
        <mxCell id="2OJKb3O0UvZsIMJTwoCQ-58" value="I = 27" style="edgeLabel;html=1;align=center;verticalAlign=middle;resizable=0;points=[];" parent="2OJKb3O0UvZsIMJTwoCQ-57" vertex="1" connectable="0">
          <mxGeometry x="0.0237" y="-2" relative="1" as="geometry">
            <mxPoint y="-8" as="offset" />
          </mxGeometry>
        </mxCell>
        <mxCell id="2OJKb3O0UvZsIMJTwoCQ-59" value="7" style="ellipse;whiteSpace=wrap;html=1;aspect=fixed;" parent="1" vertex="1">
          <mxGeometry x="1305" y="1160" width="80" height="80" as="geometry" />
        </mxCell>
        <mxCell id="2OJKb3O0UvZsIMJTwoCQ-60" value="8" style="ellipse;whiteSpace=wrap;html=1;aspect=fixed;" parent="1" vertex="1">
          <mxGeometry x="1055" y="1160" width="80" height="80" as="geometry" />
        </mxCell>
        <mxCell id="2OJKb3O0UvZsIMJTwoCQ-61" value="EFT" style="text;html=1;align=center;verticalAlign=middle;resizable=0;points=[];autosize=1;strokeColor=none;fillColor=none;" parent="1" vertex="1">
          <mxGeometry x="335" y="330" width="50" height="30" as="geometry" />
        </mxCell>
        <mxCell id="2OJKb3O0UvZsIMJTwoCQ-62" value="LST" style="text;html=1;align=center;verticalAlign=middle;resizable=0;points=[];autosize=1;strokeColor=none;fillColor=none;" parent="1" vertex="1">
          <mxGeometry x="330" y="988" width="50" height="30" as="geometry" />
        </mxCell>
        <mxCell id="hepOo1eo8P5SPU1GNf9d-1" value="" style="edgeStyle=orthogonalEdgeStyle;rounded=0;orthogonalLoop=1;jettySize=auto;html=1;fillColor=#f8cecc;strokeColor=#b85450;" edge="1" parent="1" source="hepOo1eo8P5SPU1GNf9d-3" target="hepOo1eo8P5SPU1GNf9d-8">
          <mxGeometry relative="1" as="geometry" />
        </mxCell>
        <mxCell id="hepOo1eo8P5SPU1GNf9d-2" value="&lt;font style=&quot;font-size: 15px;&quot;&gt;A = 3&lt;/font&gt;" style="edgeLabel;html=1;align=center;verticalAlign=middle;resizable=0;points=[];" vertex="1" connectable="0" parent="hepOo1eo8P5SPU1GNf9d-1">
          <mxGeometry x="-0.0083" y="2" relative="1" as="geometry">
            <mxPoint x="-1" y="-8" as="offset" />
          </mxGeometry>
        </mxCell>
        <mxCell id="hepOo1eo8P5SPU1GNf9d-3" value="0" style="ellipse;whiteSpace=wrap;html=1;aspect=fixed;fillColor=#f8cecc;strokeColor=#b85450;" vertex="1" parent="1">
          <mxGeometry x="320" y="1340" width="80" height="80" as="geometry" />
        </mxCell>
        <mxCell id="hepOo1eo8P5SPU1GNf9d-4" value="" style="edgeStyle=orthogonalEdgeStyle;rounded=0;orthogonalLoop=1;jettySize=auto;html=1;" edge="1" parent="1" source="hepOo1eo8P5SPU1GNf9d-8" target="hepOo1eo8P5SPU1GNf9d-11">
          <mxGeometry relative="1" as="geometry" />
        </mxCell>
        <mxCell id="hepOo1eo8P5SPU1GNf9d-5" value="&lt;font style=&quot;font-size: 15px;&quot;&gt;B = 4&lt;/font&gt;" style="edgeLabel;html=1;align=center;verticalAlign=middle;resizable=0;points=[];" vertex="1" connectable="0" parent="hepOo1eo8P5SPU1GNf9d-4">
          <mxGeometry x="0.0745" y="2" relative="1" as="geometry">
            <mxPoint x="-3" y="-8" as="offset" />
          </mxGeometry>
        </mxCell>
        <mxCell id="hepOo1eo8P5SPU1GNf9d-6" value="" style="rounded=0;orthogonalLoop=1;jettySize=auto;html=1;fillColor=#f8cecc;strokeColor=#b85450;" edge="1" parent="1" source="hepOo1eo8P5SPU1GNf9d-8" target="hepOo1eo8P5SPU1GNf9d-17">
          <mxGeometry relative="1" as="geometry" />
        </mxCell>
        <mxCell id="hepOo1eo8P5SPU1GNf9d-7" value="&lt;font style=&quot;font-size: 15px;&quot;&gt;D = 5&lt;/font&gt;" style="edgeLabel;html=1;align=center;verticalAlign=middle;resizable=0;points=[];" vertex="1" connectable="0" parent="hepOo1eo8P5SPU1GNf9d-6">
          <mxGeometry x="0.0436" y="1" relative="1" as="geometry">
            <mxPoint x="-30" y="8" as="offset" />
          </mxGeometry>
        </mxCell>
        <mxCell id="hepOo1eo8P5SPU1GNf9d-8" value="1" style="ellipse;whiteSpace=wrap;html=1;aspect=fixed;fillColor=#f8cecc;strokeColor=#b85450;" vertex="1" parent="1">
          <mxGeometry x="560" y="1340" width="80" height="80" as="geometry" />
        </mxCell>
        <mxCell id="hepOo1eo8P5SPU1GNf9d-9" value="" style="edgeStyle=orthogonalEdgeStyle;rounded=0;orthogonalLoop=1;jettySize=auto;html=1;" edge="1" parent="1" source="hepOo1eo8P5SPU1GNf9d-11" target="hepOo1eo8P5SPU1GNf9d-14">
          <mxGeometry relative="1" as="geometry" />
        </mxCell>
        <mxCell id="hepOo1eo8P5SPU1GNf9d-10" value="&lt;font style=&quot;font-size: 15px;&quot;&gt;C = 6&lt;/font&gt;" style="edgeLabel;html=1;align=center;verticalAlign=middle;resizable=0;points=[];" vertex="1" connectable="0" parent="hepOo1eo8P5SPU1GNf9d-9">
          <mxGeometry x="0.0039" y="-6" relative="1" as="geometry">
            <mxPoint x="-6" y="-16" as="offset" />
          </mxGeometry>
        </mxCell>
        <mxCell id="hepOo1eo8P5SPU1GNf9d-11" value="2" style="ellipse;whiteSpace=wrap;html=1;aspect=fixed;" vertex="1" parent="1">
          <mxGeometry x="810" y="1340" width="80" height="80" as="geometry" />
        </mxCell>
        <mxCell id="hepOo1eo8P5SPU1GNf9d-12" style="edgeStyle=orthogonalEdgeStyle;rounded=0;orthogonalLoop=1;jettySize=auto;html=1;fillColor=#f8cecc;strokeColor=#b85450;" edge="1" parent="1" source="hepOo1eo8P5SPU1GNf9d-14" target="hepOo1eo8P5SPU1GNf9d-20">
          <mxGeometry relative="1" as="geometry" />
        </mxCell>
        <mxCell id="hepOo1eo8P5SPU1GNf9d-13" value="&lt;font style=&quot;font-size: 15px;&quot;&gt;F = 4&lt;/font&gt;" style="edgeLabel;html=1;align=center;verticalAlign=middle;resizable=0;points=[];" vertex="1" connectable="0" parent="hepOo1eo8P5SPU1GNf9d-12">
          <mxGeometry x="-0.0013" relative="1" as="geometry">
            <mxPoint x="-5" y="-10" as="offset" />
          </mxGeometry>
        </mxCell>
        <mxCell id="hepOo1eo8P5SPU1GNf9d-14" value="4" style="ellipse;whiteSpace=wrap;html=1;aspect=fixed;fillColor=#f8cecc;strokeColor=#b85450;" vertex="1" parent="1">
          <mxGeometry x="1060" y="1340" width="80" height="80" as="geometry" />
        </mxCell>
        <mxCell id="hepOo1eo8P5SPU1GNf9d-15" value="" style="rounded=0;orthogonalLoop=1;jettySize=auto;html=1;entryX=0.5;entryY=1;entryDx=0;entryDy=0;fillColor=#f8cecc;strokeColor=#b85450;" edge="1" parent="1" source="hepOo1eo8P5SPU1GNf9d-17" target="hepOo1eo8P5SPU1GNf9d-14">
          <mxGeometry relative="1" as="geometry">
            <mxPoint x="1060" y="1540" as="targetPoint" />
          </mxGeometry>
        </mxCell>
        <mxCell id="hepOo1eo8P5SPU1GNf9d-16" value="&lt;font style=&quot;font-size: 15px;&quot;&gt;E = 7&lt;/font&gt;" style="edgeLabel;html=1;align=center;verticalAlign=middle;resizable=0;points=[];" vertex="1" connectable="0" parent="hepOo1eo8P5SPU1GNf9d-15">
          <mxGeometry x="0.051" relative="1" as="geometry">
            <mxPoint x="-18" y="31" as="offset" />
          </mxGeometry>
        </mxCell>
        <mxCell id="hepOo1eo8P5SPU1GNf9d-17" value="3" style="ellipse;whiteSpace=wrap;html=1;aspect=fixed;fillColor=#f8cecc;strokeColor=#b85450;" vertex="1" parent="1">
          <mxGeometry x="810" y="1500" width="80" height="80" as="geometry" />
        </mxCell>
        <mxCell id="hepOo1eo8P5SPU1GNf9d-18" value="" style="edgeStyle=orthogonalEdgeStyle;rounded=0;orthogonalLoop=1;jettySize=auto;html=1;fillColor=#f8cecc;strokeColor=#b85450;" edge="1" parent="1" source="hepOo1eo8P5SPU1GNf9d-20" target="hepOo1eo8P5SPU1GNf9d-23">
          <mxGeometry relative="1" as="geometry" />
        </mxCell>
        <mxCell id="hepOo1eo8P5SPU1GNf9d-19" value="&lt;font style=&quot;font-size: 15px;&quot;&gt;G = 5&lt;/font&gt;" style="edgeLabel;html=1;align=center;verticalAlign=middle;resizable=0;points=[];" vertex="1" connectable="0" parent="hepOo1eo8P5SPU1GNf9d-18">
          <mxGeometry x="-0.0579" relative="1" as="geometry">
            <mxPoint x="20" as="offset" />
          </mxGeometry>
        </mxCell>
        <mxCell id="hepOo1eo8P5SPU1GNf9d-20" value="5" style="ellipse;whiteSpace=wrap;html=1;aspect=fixed;fillColor=#f8cecc;strokeColor=#b85450;" vertex="1" parent="1">
          <mxGeometry x="1310" y="1340" width="80" height="80" as="geometry" />
        </mxCell>
        <mxCell id="hepOo1eo8P5SPU1GNf9d-21" value="" style="edgeStyle=orthogonalEdgeStyle;rounded=0;orthogonalLoop=1;jettySize=auto;html=1;fillColor=#f8cecc;strokeColor=#b85450;" edge="1" parent="1" source="hepOo1eo8P5SPU1GNf9d-23" target="hepOo1eo8P5SPU1GNf9d-26">
          <mxGeometry relative="1" as="geometry" />
        </mxCell>
        <mxCell id="hepOo1eo8P5SPU1GNf9d-22" value="&lt;font style=&quot;font-size: 15px;&quot;&gt;H = 3&lt;/font&gt;" style="edgeLabel;html=1;align=center;verticalAlign=middle;resizable=0;points=[];" vertex="1" connectable="0" parent="hepOo1eo8P5SPU1GNf9d-21">
          <mxGeometry x="-0.0817" y="-1" relative="1" as="geometry">
            <mxPoint x="21" as="offset" />
          </mxGeometry>
        </mxCell>
        <mxCell id="hepOo1eo8P5SPU1GNf9d-23" value="6" style="ellipse;whiteSpace=wrap;html=1;aspect=fixed;fillColor=#f8cecc;strokeColor=#b85450;" vertex="1" parent="1">
          <mxGeometry x="1310" y="1500" width="80" height="80" as="geometry" />
        </mxCell>
        <mxCell id="hepOo1eo8P5SPU1GNf9d-24" value="" style="edgeStyle=orthogonalEdgeStyle;rounded=0;orthogonalLoop=1;jettySize=auto;html=1;fillColor=#f8cecc;strokeColor=#b85450;" edge="1" parent="1" source="hepOo1eo8P5SPU1GNf9d-26" target="hepOo1eo8P5SPU1GNf9d-27">
          <mxGeometry relative="1" as="geometry" />
        </mxCell>
        <mxCell id="hepOo1eo8P5SPU1GNf9d-25" value="&lt;font style=&quot;font-size: 15px;&quot;&gt;I = 2&lt;/font&gt;" style="edgeLabel;html=1;align=center;verticalAlign=middle;resizable=0;points=[];" vertex="1" connectable="0" parent="hepOo1eo8P5SPU1GNf9d-24">
          <mxGeometry x="0.0237" y="-2" relative="1" as="geometry">
            <mxPoint y="-8" as="offset" />
          </mxGeometry>
        </mxCell>
        <mxCell id="hepOo1eo8P5SPU1GNf9d-26" value="7" style="ellipse;whiteSpace=wrap;html=1;aspect=fixed;fillColor=#f8cecc;strokeColor=#b85450;" vertex="1" parent="1">
          <mxGeometry x="1310" y="1660" width="80" height="80" as="geometry" />
        </mxCell>
        <mxCell id="hepOo1eo8P5SPU1GNf9d-27" value="8" style="ellipse;whiteSpace=wrap;html=1;aspect=fixed;fillColor=#f8cecc;strokeColor=#b85450;" vertex="1" parent="1">
          <mxGeometry x="1060" y="1660" width="80" height="80" as="geometry" />
        </mxCell>
      </root>
    </mxGraphModel>
  </diagram>
</mxfile>
